<svg width="39" height="45" viewBox="0 0 39 45" fill="none" xmlns="http://www.w3.org/2000/svg">
<path d="M19.5 0C20.8583 0 21.9595 1.1193 21.9595 2.5V18.17L35.3102 10.3349C36.4866 9.64458 37.9908 10.0543 38.6702 11.25C39.3492 12.4457 38.9461 13.9747 37.7697 14.6651L24.419 22.5L37.7697 30.335C38.9461 31.0252 39.3492 32.5542 38.6699 33.75C37.9908 34.9458 36.4866 35.3555 35.3102 34.665L21.9595 26.8302V42.5C21.9595 43.8807 20.8583 45 19.5 45C18.1416 45 17.0404 43.8807 17.0404 42.5V26.8302L3.68979 34.665C2.51343 35.3555 1.00921 34.9458 0.330015 33.75C-0.349156 32.5542 0.0539101 31.0252 1.23027 30.335L14.581 22.5L1.23017 14.6651C0.0538116 13.9747 -0.349254 12.4457 0.329916 11.25C1.00911 10.0543 2.51333 9.64458 3.68969 10.3349L17.0404 18.17V2.5C17.0404 1.1193 18.1416 0 19.5 0Z" fill="black"/>
</svg>
